<svg width="1440" height="72" viewBox="0 0 1440 72" fill="none" xmlns="http://www.w3.org/2000/svg">
<rect width="1440" height="72" fill="#27272A"/>
<rect x="1224" y="15" width="80" height="42" rx="8" fill="#5B21B6"/>
<path d="M1242.69 32.032V35.76H1246.75V36.96H1242.69V40.8H1247.23V42H1241.23V30.832H1247.23V32.032H1242.69ZM1253.71 33.072C1254.77 33.072 1255.64 33.3973 1256.3 34.048C1256.96 34.688 1257.29 35.616 1257.29 36.832V42H1255.85V37.04C1255.85 36.1653 1255.63 35.4987 1255.2 35.04C1254.76 34.5707 1254.16 34.336 1253.4 34.336C1252.64 34.336 1252.02 34.576 1251.56 35.056C1251.12 35.536 1250.89 36.2347 1250.89 37.152V42H1249.44V33.232H1250.89V34.48C1251.18 34.032 1251.57 33.6853 1252.06 33.44C1252.56 33.1947 1253.11 33.072 1253.71 33.072ZM1261.45 34.432V39.6C1261.45 40.0267 1261.54 40.3307 1261.72 40.512C1261.9 40.6827 1262.21 40.768 1262.66 40.768H1263.73V42H1262.42C1261.61 42 1261 41.8133 1260.6 41.44C1260.19 41.0667 1259.99 40.4533 1259.99 39.6V34.432H1258.85V33.232H1259.99V31.024H1261.45V33.232H1263.73V34.432H1261.45ZM1266.95 34.656C1267.21 34.1547 1267.57 33.7653 1268.04 33.488C1268.52 33.2107 1269.1 33.072 1269.79 33.072V34.576H1269.4C1267.77 34.576 1266.95 35.4613 1266.95 37.232V42H1265.5V33.232H1266.95V34.656ZM1270.92 37.584C1270.92 36.688 1271.1 35.904 1271.47 35.232C1271.83 34.5493 1272.33 34.0213 1272.95 33.648C1273.59 33.2747 1274.3 33.088 1275.08 33.088C1275.85 33.088 1276.52 33.2533 1277.08 33.584C1277.65 33.9147 1278.07 34.3307 1278.35 34.832V33.232H1279.82V42H1278.35V40.368C1278.06 40.88 1277.63 41.3067 1277.05 41.648C1276.49 41.9787 1275.82 42.144 1275.07 42.144C1274.29 42.144 1273.58 41.952 1272.95 41.568C1272.33 41.184 1271.83 40.6453 1271.47 39.952C1271.1 39.2587 1270.92 38.4693 1270.92 37.584ZM1278.35 37.6C1278.35 36.9387 1278.21 36.3627 1277.95 35.872C1277.68 35.3813 1277.32 35.008 1276.86 34.752C1276.41 34.4853 1275.91 34.352 1275.37 34.352C1274.83 34.352 1274.33 34.48 1273.88 34.736C1273.43 34.992 1273.08 35.3653 1272.81 35.856C1272.54 36.3467 1272.41 36.9227 1272.41 37.584C1272.41 38.256 1272.54 38.8427 1272.81 39.344C1273.08 39.8347 1273.43 40.2133 1273.88 40.48C1274.33 40.736 1274.83 40.864 1275.37 40.864C1275.91 40.864 1276.41 40.736 1276.86 40.48C1277.32 40.2133 1277.68 39.8347 1277.95 39.344C1278.21 38.8427 1278.35 38.2613 1278.35 37.6ZM1283.73 34.656C1283.99 34.1547 1284.35 33.7653 1284.82 33.488C1285.3 33.2107 1285.88 33.072 1286.57 33.072V34.576H1286.18C1284.55 34.576 1283.73 35.4613 1283.73 37.232V42H1282.28V33.232H1283.73V34.656Z" fill="#F8FAFC"/>
<path d="M135 24C135 21.7909 136.791 20 139 20H144V52H139C136.791 52 135 50.2091 135 48V24Z" fill="url(#paint0_linear_17_2581)"/>
<rect x="146" y="16" width="18" height="40" rx="4" fill="#7C3AED"/>
<path d="M166 20H171C173.209 20 175 21.7909 175 24V48C175 50.2091 173.209 52 171 52H166V20Z" fill="url(#paint1_linear_17_2581)"/>
<defs>
<linearGradient id="paint0_linear_17_2581" x1="135.076" y1="36" x2="144.076" y2="36" gradientUnits="userSpaceOnUse">
<stop stop-color="#7C3AED"/>
<stop offset="1" stop-color="#7C3AED" stop-opacity="0.5"/>
</linearGradient>
<linearGradient id="paint1_linear_17_2581" x1="175.076" y1="36" x2="166.076" y2="36" gradientUnits="userSpaceOnUse">
<stop stop-color="#7C3AED"/>
<stop offset="1" stop-color="#7C3AED" stop-opacity="0.5"/>
</linearGradient>
</defs>
</svg>
